# xmcd
#
# Track frame offsets: 
#        150
#        11610
#        22966
#        44279
#        58495
#        76466
#        86652
#        103521
#        117564
#        145754
#        159469
#
# Disc length: 2313 seconds
#
# Revision: 0
# Processed by: cddbd v1.5.2PL0 Copyright (c) Steve Scherf et al.
# Submitted via: ExactAudioCopy v1.0b1
#
DISCID=8c09070b
DTITLE=Hound Dog Taylor - Natural Boogie
DYEAR=2011
DGENRE=Blues
TTITLE0=Take Five
TTITLE1=Hawaiian Boogie
TTITLE2=See Me In the Evening
TTITLE3=You Can't Sit Down
TTITLE4=Sitting At Home Alone
TTITLE5=One More Time
TTITLE6=Roll Your Moneymaker
TTITLE7=Buster's Boogie
TTITLE8=Sadie
TTITLE9=Talk to My Baby aka I Can't Hold Out
TTITLE10=Goodnight Boogie
EXTD=
EXTT0=
EXTT1=
EXTT2=
EXTT3=
EXTT4=
EXTT5=
EXTT6=
EXTT7=
EXTT8=
EXTT9=
EXTT10=
PLAYORDER=
